<?xml version="1.0" encoding="UTF-8" standalone="no"?>
<!-- Generator: Adobe Illustrator 16.0.0, SVG Export Plug-In . SVG Version: 6.00 Build 0)  -->

<svg
   xmlns:dc="http://purl.org/dc/elements/1.1/"
   xmlns:cc="http://creativecommons.org/ns#"
   xmlns:rdf="http://www.w3.org/1999/02/22-rdf-syntax-ns#"
   xmlns:svg="http://www.w3.org/2000/svg"
   xmlns="http://www.w3.org/2000/svg"
   xmlns:sodipodi="http://sodipodi.sourceforge.net/DTD/sodipodi-0.dtd"
   xmlns:inkscape="http://www.inkscape.org/namespaces/inkscape"
   version="1.1"
   id="Layer_1"
   x="0px"
   y="0px"
   viewBox="0 0 505 105"
   enable-background="new 0 0 505 105"
   xml:space="preserve"
   sodipodi:docname="Logos.svg"
   inkscape:export-filename="D:\Área de Trabalho\Dev\desafio-1\images\google-podcasts.png"
   inkscape:export-xdpi="19.647129"
   inkscape:export-ydpi="19.647129"
   inkscape:version="0.92.4 (5da689c313, 2019-01-14)"><metadata
   id="metadata71"><rdf:RDF><cc:Work
       rdf:about=""><dc:format>image/svg+xml</dc:format><dc:type
         rdf:resource="http://purl.org/dc/dcmitype/StillImage" /><dc:title></dc:title></cc:Work></rdf:RDF></metadata><defs
   id="defs69">
	
	

		
		
	<linearGradient
   id="SVGID_1_"
   gradientUnits="userSpaceOnUse"
   x1="-18.3643"
   y1="-224.998"
   x2="-17.3643"
   y2="-224.998"
   gradientTransform="matrix(0,92.6031,-92.6031,0,-20783.805,1704.2273)"><stop
     offset="0"
     style="stop-color:#AE6BA9"
     id="stop6" /><stop
     offset="1"
     style="stop-color:#694193"
     id="stop8" /></linearGradient><linearGradient
   id="linearGradient1030"
   gradientUnits="userSpaceOnUse"
   x1="-18.3643"
   y1="-224.998"
   x2="-17.3643"
   y2="-224.998"
   gradientTransform="matrix(0,92.6031,-92.6031,0,-20783.805,1704.2273)"><stop
     offset="0"
     style="stop-color:#AE6BA9"
     id="stop1026" /><stop
     offset="1"
     style="stop-color:#694193"
     id="stop1028" /></linearGradient><clipPath
   id="clipPath1073"
   clipPathUnits="userSpaceOnUse"><path
     inkscape:connector-curvature="0"
     id="path1071"
     d="M 0,595.28 H 841.89 V 0 H 0 Z" /></clipPath></defs><sodipodi:namedview
   pagecolor="#ffffff"
   bordercolor="#666666"
   borderopacity="1"
   objecttolerance="10"
   gridtolerance="10"
   guidetolerance="10"
   inkscape:pageopacity="0"
   inkscape:pageshadow="2"
   inkscape:window-width="1920"
   inkscape:window-height="1017"
   id="namedview67"
   showgrid="false"
   inkscape:zoom="1.0669611"
   inkscape:cx="234.90312"
   inkscape:cy="-59.697873"
   inkscape:window-x="-8"
   inkscape:window-y="-8"
   inkscape:window-maximized="1"
   inkscape:current-layer="Layer_1" />
<g
   id="g56"
   transform="translate(-401.38371,489.20722)">
		<path
   style="fill:#fab911"
   inkscape:connector-curvature="0"
   id="path2"
   d="m 448.973,35.938 v 33.083 h 11.371 V 35.938 Z" />
		<circle
   style="fill:#2d64ad"
   id="circle4"
   r="5.7069998"
   cy="49.377998"
   cx="414.85501" />
		<circle
   style="fill:#2d64ad"
   id="circle6"
   r="5.7069998"
   cy="55.581001"
   cx="414.85501" />
		<path
   style="fill:#2d64ad"
   inkscape:connector-curvature="0"
   id="path8"
   d="m 409.189,49.378 h 11.373 v 6.203 h -11.373 z" />
		<circle
   style="fill:#527bbd"
   id="circle10"
   r="5.7069998"
   cy="55.581001"
   cx="494.461" />
		<circle
   style="fill:#527bbd"
   id="circle12"
   r="5.7069998"
   cy="49.377998"
   cx="494.461" />
		<path
   style="fill:#527bbd"
   inkscape:connector-curvature="0"
   id="path14"
   d="m 488.795,49.378 h 11.373 v 6.203 h -11.373 z" />
		<circle
   style="fill:#e84436"
   id="circle16"
   r="5.7069998"
   cy="67.986"
   cx="434.49799" />
		<circle
   style="fill:#e84436"
   id="circle18"
   r="5.7069998"
   cy="74.189003"
   cx="434.49799" />
		<path
   style="fill:#e84436"
   inkscape:connector-curvature="0"
   id="path20"
   d="m 428.791,67.986 h 11.373 v 6.203 h -11.373 z" />
		<circle
   style="fill:#e84436"
   id="circle22"
   r="5.7069998"
   cy="30.768999"
   cx="434.49799" />
		<circle
   style="fill:#e84436"
   id="circle24"
   r="5.7069998"
   cy="50.949001"
   cx="434.49799" />
		<path
   style="fill:#e84436"
   inkscape:connector-curvature="0"
   id="path26"
   d="m 428.791,30.769 h 11.373 v 20.305 h -11.373 z" />
		<circle
   style="fill:#34a953"
   id="circle28"
   r="5.7069998"
   cy="36.972"
   cx="474.81799" />
		<circle
   style="fill:#34a953"
   id="circle30"
   r="5.7069998"
   cy="30.768999"
   cx="474.81799" />
		<path
   style="fill:#34a953"
   inkscape:connector-curvature="0"
   id="path32"
   d="m 469.152,30.769 h 11.373 v 6.203 h -11.373 z" />
		<circle
   style="fill:#fab911"
   id="circle34"
   r="5.7069998"
   cy="18.9"
   cx="454.67999" />
		<circle
   style="fill:#fab911"
   id="circle36"
   r="5.7069998"
   cy="12.697"
   cx="454.67999" />
		<path
   style="fill:#fab911"
   inkscape:connector-curvature="0"
   id="path38"
   d="m 448.973,12.697 h 11.371 V 18.9 h -11.371 z" />
		<circle
   style="fill:#fab911"
   id="circle40"
   r="5.7069998"
   cy="92.303001"
   cx="454.67999" />
		<circle
   style="fill:#fab911"
   id="circle42"
   r="5.7069998"
   cy="86.099998"
   cx="454.67999" />
		<path
   style="fill:#fab911"
   inkscape:connector-curvature="0"
   id="path44"
   d="m 448.973,86.1 h 11.371 v 6.203 h -11.371 z" />
		<circle
   style="fill:#34a953"
   id="circle46"
   r="5.7069998"
   cy="74.189003"
   cx="474.81799" />
		<circle
   style="fill:#34a953"
   id="circle48"
   r="5.7069998"
   cy="54.050999"
   cx="474.81799" />
		<path
   style="fill:#34a953"
   inkscape:connector-curvature="0"
   id="path50"
   d="m 469.152,54.051 h 11.373 v 20.182 h -11.373 z" />
		<circle
   style="fill:#fab911"
   id="circle52"
   r="5.7069998"
   cy="35.938"
   cx="454.67999" />
		<circle
   style="fill:#fab911"
   id="circle54"
   r="5.7069998"
   cy="69.021004"
   cx="454.67999" />
	</g><g
   id="g62"
   transform="translate(104.71127,488.7386)">
		<path
   style="fill:none"
   inkscape:connector-curvature="0"
   id="path58"
   d="M 4.833,22.746 H 391.528 V 82.254 H 4.833 Z" />
		<path
   style="fill:#3d4043"
   inkscape:connector-curvature="0"
   id="path60"
   d="m 195.679,67.366 h -4.838 V 29.487 h 12.902 c 3.184,0 5.955,1.075 8.312,3.226 2.357,2.108 3.516,4.797 3.516,8.063 0,3.226 -1.158,5.914 -3.516,8.064 -2.26,2.088 -5.235,3.229 -8.312,3.184 h -8.064 z m 0,-19.972 h 8.146 c 2.068,0 3.723,-0.703 4.963,-2.068 1.199,-1.406 1.819,-2.895 1.819,-4.549 0,-1.654 -0.62,-3.184 -1.86,-4.549 -1.241,-1.406 -2.896,-2.067 -4.922,-2.067 h -8.146 z m 23.944,-2.813 c 2.48,-2.646 5.665,-3.97 9.552,-3.97 3.888,0 7.072,1.323 9.595,3.929 2.48,2.646 3.722,5.913 3.722,9.883 0,3.929 -1.241,7.237 -3.722,9.843 -2.481,2.646 -5.707,3.93 -9.595,3.93 -3.887,0 -7.029,-1.282 -9.552,-3.93 -2.481,-2.604 -3.764,-5.914 -3.764,-9.843 0,-3.97 1.24,-7.236 3.722,-9.842 z m 3.598,16.666 c 3.104,3.288 8.285,3.438 11.574,0.334 0.115,-0.106 0.227,-0.22 0.335,-0.334 1.654,-1.737 2.481,-4.013 2.481,-6.824 0,-2.812 -0.827,-5.086 -2.481,-6.822 -1.654,-1.654 -3.639,-2.564 -5.955,-2.564 -2.274,0 -4.259,0.868 -5.954,2.564 -1.654,1.736 -2.481,4.011 -2.481,6.822 -0.002,2.811 0.825,5.087 2.481,6.824 z m 33.951,6.946 c -3.309,0 -6.204,-1.323 -8.686,-3.93 -2.445,-2.684 -3.75,-6.213 -3.639,-9.842 0,-3.928 1.24,-7.195 3.639,-9.842 3.467,-4.068 9.293,-5.186 14.02,-2.688 1.57,0.826 2.729,1.902 3.516,3.143 h 0.207 l -0.207,-3.598 v -11.95 h 4.838 v 37.879 h -4.631 v -3.598 h -0.207 c -0.826,1.24 -1.943,2.315 -3.516,3.185 -1.57,0.827 -3.35,1.241 -5.334,1.241 z m 0.826,-4.423 c 2.275,0 4.219,-0.826 5.789,-2.521 1.654,-1.696 2.439,-3.971 2.439,-6.824 0,-2.895 -0.826,-5.127 -2.398,-6.822 -1.654,-1.696 -3.557,-2.564 -5.871,-2.564 -2.232,0 -4.178,0.827 -5.79,2.564 -1.654,1.695 -2.481,3.969 -2.481,6.781 0,2.854 0.827,5.129 2.481,6.823 1.612,1.694 3.557,2.563 5.79,2.563 z m 29.775,4.423 c -3.889,0 -7.072,-1.281 -9.596,-3.93 -2.48,-2.604 -3.723,-5.912 -3.723,-9.842 0,-3.97 1.24,-7.236 3.723,-9.883 2.48,-2.605 5.707,-3.929 9.596,-3.929 4.984,-0.188 9.547,2.798 11.371,7.443 l -4.467,1.86 c -1.051,-3.062 -4.006,-5.054 -7.236,-4.879 -2.15,0 -4.053,0.91 -5.707,2.646 -1.654,1.778 -2.439,4.012 -2.439,6.74 0,2.688 0.828,4.963 2.48,6.699 1.654,1.777 3.516,2.646 5.666,2.646 3.639,0 6.121,-1.654 7.525,-4.88 l 4.342,1.86 c -1.902,4.66 -6.509,7.634 -11.535,7.449 z m 23.075,0 c -2.771,0 -5.086,-0.785 -6.904,-2.356 -1.84,-1.56 -2.861,-3.877 -2.771,-6.286 0,-2.813 1.074,-5.045 3.268,-6.615 2.363,-1.675 5.209,-2.529 8.104,-2.439 2.855,0 5.17,0.537 7.029,1.57 v -0.744 c 0,-1.902 -0.66,-3.391 -1.984,-4.549 -1.324,-1.158 -3.037,-1.779 -4.797,-1.736 -1.406,0 -2.688,0.33 -3.846,1.033 -1.158,0.662 -1.943,1.572 -2.357,2.73 l -4.424,-1.902 c 0.578,-1.531 1.777,-2.979 3.557,-4.301 1.736,-1.324 4.053,-1.985 6.947,-1.985 3.307,0 6.078,0.951 8.271,2.895 2.189,1.944 3.309,4.673 3.309,8.188 v 15.672 h -4.674 V 63.77 h -0.207 c -1.846,2.912 -5.117,4.604 -8.561,4.426 h 0.041 v -0.003 z m 0.785,-4.423 c 1.986,0 3.807,-0.744 5.459,-2.232 1.654,-1.53 2.48,-3.309 2.48,-5.335 -1.404,-1.116 -3.475,-1.653 -6.201,-1.653 -2.357,0 -4.137,0.496 -5.377,1.488 -1.158,1.033 -1.777,2.232 -1.777,3.598 0,1.281 0.578,2.274 1.654,3.02 1.074,0.744 2.355,1.115 3.721,1.115 h 0.041 z m 26.797,4.423 c -4.953,0.184 -9.48,-2.786 -11.289,-7.401 l 4.344,-1.778 c 1.363,3.227 3.721,4.881 7.029,4.881 1.488,0 2.729,-0.373 3.723,-1.035 0.906,-0.571 1.455,-1.572 1.445,-2.646 0,-1.653 -1.197,-2.813 -3.557,-3.433 l -5.209,-1.24 c -1.73,-0.464 -3.338,-1.297 -4.715,-2.439 -1.463,-1.138 -2.293,-2.905 -2.232,-4.755 0,-2.316 1.033,-4.136 3.061,-5.583 2.113,-1.453 4.631,-2.206 7.193,-2.15 2.316,0 4.344,0.538 6.162,1.571 1.779,1.033 3.063,2.48 3.848,4.467 l -4.219,1.736 c -0.951,-2.274 -2.938,-3.433 -5.914,-3.433 -1.447,0 -2.688,0.29 -3.68,0.91 -0.951,0.579 -1.447,1.405 -1.447,2.398 0,1.489 1.115,2.481 3.432,3.019 l 5.129,1.24 c 2.396,0.537 4.217,1.529 5.375,2.895 1.158,1.366 1.738,2.896 1.738,4.674 0,2.314 -0.951,4.26 -2.855,5.789 -1.903,1.57 -4.343,2.313 -7.362,2.313 z m 24.812,-0.414 c -2.729,0 -4.797,-0.702 -6.244,-2.149 -1.523,-1.678 -2.299,-3.899 -2.15,-6.162 V 45.905 h -4.549 v -4.466 h 4.549 v -7.898 h 4.881 v 7.898 h 6.326 v 4.466 h -6.326 v 13.233 c 0,2.813 1.156,4.217 3.473,4.217 0.91,0 1.654,-0.164 2.232,-0.412 l 1.654,4.135 c -1.033,0.496 -2.314,0.703 -3.887,0.703 h 0.041 z m 16.996,0.414 c -4.953,0.184 -9.482,-2.786 -11.289,-7.401 l 4.342,-1.778 c 1.365,3.227 3.723,4.881 7.031,4.881 1.486,0 2.729,-0.373 3.721,-1.035 0.908,-0.571 1.455,-1.572 1.447,-2.646 0,-1.653 -1.199,-2.813 -3.557,-3.433 l -5.211,-1.24 c -1.729,-0.464 -3.338,-1.297 -4.715,-2.439 -1.461,-1.138 -2.291,-2.905 -2.232,-4.755 0,-2.316 1.033,-4.136 3.061,-5.583 2.115,-1.453 4.631,-2.206 7.195,-2.15 2.314,0 4.342,0.538 6.162,1.571 1.777,1.033 3.061,2.48 3.846,4.467 l -4.217,1.736 c -0.951,-2.274 -2.938,-3.433 -5.914,-3.433 -1.447,0 -2.689,0.29 -3.682,0.91 -0.992,0.579 -1.447,1.405 -1.447,2.398 0,1.489 1.117,2.481 3.434,3.019 l 5.127,1.24 c 2.398,0.537 4.219,1.529 5.377,2.895 1.156,1.365 1.736,2.896 1.736,4.674 0,2.314 -0.951,4.26 -2.855,5.789 -1.901,1.57 -4.34,2.313 -7.36,2.313 z M 6.073,46.524 c 0,-11.992 10.008,-21.711 22,-21.711 5.567,-0.087 10.935,2.075 14.888,5.997 l -4.219,4.136 c -6.246,-5.894 -16.087,-5.607 -21.979,0.639 -2.767,2.934 -4.286,6.826 -4.238,10.857 0,8.725 6.823,15.756 15.549,15.756 4.104,0.172 8.088,-1.406 10.959,-4.343 1.654,-1.654 2.812,-4.137 3.226,-7.443 H 28.073 v -5.913 h 19.974 c 0.207,1.074 0.331,2.314 0.331,3.721 0.181,5.113 -1.662,10.09 -5.128,13.854 -3.96,4.1 -9.482,6.311 -15.177,6.078 -12.015,0.025 -21.819,-9.613 -22,-21.628 z m 58.184,-5.996 c 7.604,-0.138 13.88,5.916 14.018,13.52 0.002,0.14 0.003,0.277 10e-4,0.416 0.115,7.604 -5.955,13.863 -13.56,13.979 -0.153,0.002 -0.307,0.002 -0.459,0 -7.604,0.115 -13.862,-5.957 -13.978,-13.562 -0.002,-0.14 -0.002,-0.278 0,-0.418 -0.115,-7.581 5.938,-13.82 13.519,-13.936 0.154,-0.002 0.306,-10e-4 0.459,10e-4 z m 0,22.372 c 4.218,0 7.898,-3.475 7.898,-8.479 0,-5.045 -3.681,-8.477 -7.857,-8.477 -4.301,0 -7.898,3.432 -7.898,8.477 -10e-4,5.006 3.64,8.479 7.857,8.479 z M 94.858,40.528 c 7.604,-0.115 13.862,5.957 13.977,13.562 0.002,0.125 0.002,0.25 0.001,0.374 0.115,7.604 -5.957,13.863 -13.561,13.979 -0.14,0.002 -0.278,0.002 -0.417,0 -7.604,0.138 -13.881,-5.916 -14.019,-13.521 -0.003,-0.151 -0.003,-0.306 0,-0.459 -0.116,-7.581 5.936,-13.82 13.518,-13.938 0.167,-10e-4 0.334,-10e-4 0.501,0.003 z m 0,22.372 c 4.218,0 7.857,-3.475 7.857,-8.479 0,-5.045 -3.599,-8.477 -7.857,-8.477 -4.26,0 -7.898,3.432 -7.898,8.477 0,5.004 3.681,8.479 7.856,8.479 z m 37.509,-21.917 h 5.872 v 25.061 c 0,10.338 -6.079,14.558 -13.274,14.558 -5.437,0.032 -10.347,-3.24 -12.406,-8.271 l 5.376,-2.232 c 0.909,2.273 3.226,4.963 6.988,4.963 4.549,0 7.443,-2.896 7.443,-8.188 V 64.85 h -0.206 c -1.864,2.094 -4.558,3.26 -7.361,3.184 -7.505,-0.246 -13.447,-6.428 -13.398,-13.936 0,-7.857 6.41,-14.021 13.398,-14.021 3.309,0 5.996,1.489 7.361,3.143 h 0.206 z m -7.031,21.544 c 4.135,0 7.443,-3.516 7.443,-8.436 0,-4.922 -3.309,-8.479 -7.443,-8.479 -4.219,0 -7.774,3.557 -7.774,8.479 0.001,4.882 3.556,8.436 7.774,8.436 z m 17.08,4.964 V 26.468 h 6.078 v 41.023 z m 22.91,-4.55 c 3.143,0 5.293,-1.571 6.905,-3.887 l 4.756,3.184 c -2.604,3.891 -6.981,6.22 -11.661,6.203 -7.537,0.095 -13.723,-5.939 -13.815,-13.477 -0.003,-0.167 -0.001,-0.334 0.003,-0.502 0,-8.27 5.996,-13.936 13.232,-13.936 7.196,0 10.752,5.707 11.91,8.85 l 0.62,1.572 -18.691,7.732 c 1.447,2.771 3.64,4.217 6.782,4.217 z m -0.414,-17.078 c -3.184,0 -7.526,2.771 -7.361,8.146 L 170.04,48.84 c -0.662,-1.737 -2.729,-2.937 -5.169,-2.937 z" />
	</g>
<g
   transform="translate(-405.13268,377.6755)"
   id="g963"
   style="fill:#666666;fill-opacity:1"
   inkscape:export-filename="D:\Área de Trabalho\Dev\desafio-1\images\google-podcasts.png"
   inkscape:export-xdpi="63.28278"
   inkscape:export-ydpi="63.28278">
		<path
   d="m 448.973,35.938 v 33.083 h 11.371 V 35.938 Z"
   id="path909"
   inkscape:connector-curvature="0"
   style="fill:#666666;fill-opacity:1" />
		<circle
   cx="414.85501"
   cy="49.377998"
   r="5.7069998"
   id="circle911"
   style="fill:#666666;fill-opacity:1" />
		<circle
   cx="414.85501"
   cy="55.581001"
   r="5.7069998"
   id="circle913"
   style="fill:#666666;fill-opacity:1" />
		<path
   d="m 409.189,49.378 h 11.373 v 6.203 h -11.373 z"
   id="path915"
   inkscape:connector-curvature="0"
   style="fill:#666666;fill-opacity:1" />
		<circle
   cx="494.461"
   cy="55.581001"
   r="5.7069998"
   id="circle917"
   style="fill:#666666;fill-opacity:1" />
		<circle
   cx="494.461"
   cy="49.377998"
   r="5.7069998"
   id="circle919"
   style="fill:#666666;fill-opacity:1" />
		<path
   d="m 488.795,49.378 h 11.373 v 6.203 h -11.373 z"
   id="path921"
   inkscape:connector-curvature="0"
   style="fill:#666666;fill-opacity:1" />
		<circle
   cx="434.49799"
   cy="67.986"
   r="5.7069998"
   id="circle923"
   style="fill:#666666;fill-opacity:1" />
		<circle
   cx="434.49799"
   cy="74.189003"
   r="5.7069998"
   id="circle925"
   style="fill:#666666;fill-opacity:1" />
		<path
   d="m 428.791,67.986 h 11.373 v 6.203 h -11.373 z"
   id="path927"
   inkscape:connector-curvature="0"
   style="fill:#666666;fill-opacity:1" />
		<circle
   cx="434.49799"
   cy="30.768999"
   r="5.7069998"
   id="circle929"
   style="fill:#666666;fill-opacity:1" />
		<circle
   cx="434.49799"
   cy="50.949001"
   r="5.7069998"
   id="circle931"
   style="fill:#666666;fill-opacity:1" />
		<path
   d="m 428.791,30.769 h 11.373 v 20.305 h -11.373 z"
   id="path933"
   inkscape:connector-curvature="0"
   style="fill:#666666;fill-opacity:1" />
		<circle
   cx="474.81799"
   cy="36.972"
   r="5.7069998"
   id="circle935"
   style="fill:#666666;fill-opacity:1" />
		<circle
   cx="474.81799"
   cy="30.768999"
   r="5.7069998"
   id="circle937"
   style="fill:#666666;fill-opacity:1" />
		<path
   d="m 469.152,30.769 h 11.373 v 6.203 h -11.373 z"
   id="path939"
   inkscape:connector-curvature="0"
   style="fill:#666666;fill-opacity:1" />
		<circle
   cx="454.67999"
   cy="18.9"
   r="5.7069998"
   id="circle941"
   style="fill:#666666;fill-opacity:1" />
		<circle
   cx="454.67999"
   cy="12.697"
   r="5.7069998"
   id="circle943"
   style="fill:#666666;fill-opacity:1" />
		<path
   d="m 448.973,12.697 h 11.371 V 18.9 h -11.371 z"
   id="path945"
   inkscape:connector-curvature="0"
   style="fill:#666666;fill-opacity:1" />
		<circle
   cx="454.67999"
   cy="92.303001"
   r="5.7069998"
   id="circle947"
   style="fill:#666666;fill-opacity:1" />
		<circle
   cx="454.67999"
   cy="86.099998"
   r="5.7069998"
   id="circle949"
   style="fill:#666666;fill-opacity:1" />
		<path
   d="m 448.973,86.1 h 11.371 v 6.203 h -11.371 z"
   id="path951"
   inkscape:connector-curvature="0"
   style="fill:#666666;fill-opacity:1" />
		<circle
   cx="474.81799"
   cy="74.189003"
   r="5.7069998"
   id="circle953"
   style="fill:#666666;fill-opacity:1" />
		<circle
   cx="474.81799"
   cy="54.050999"
   r="5.7069998"
   id="circle955"
   style="fill:#666666;fill-opacity:1" />
		<path
   d="m 469.152,54.051 h 11.373 v 20.182 h -11.373 z"
   id="path957"
   inkscape:connector-curvature="0"
   style="fill:#666666;fill-opacity:1" />
		<circle
   cx="454.67999"
   cy="35.938"
   r="5.7069998"
   id="circle959"
   style="fill:#666666;fill-opacity:1" />
		<circle
   cx="454.67999"
   cy="69.021004"
   r="5.7069998"
   id="circle961"
   style="fill:#666666;fill-opacity:1" />
	</g><path
   style="fill:none"
   inkscape:connector-curvature="0"
   id="path965"
   d="m 108.99525,-85.03675 h 386.695 v 59.508 h -386.695 z" /><path
   style="fill:#666666"
   inkscape:connector-curvature="0"
   id="path967"
   d="m 298.51578,444.83515 h -4.838 v -37.879 h 12.902 c 3.184,0 5.955,1.075 8.312,3.226 2.357,2.108 3.516,4.797 3.516,8.063 0,3.226 -1.158,5.914 -3.516,8.064 -2.26,2.088 -5.235,3.229 -8.312,3.184 h -8.064 z m 0,-19.972 h 8.146 c 2.068,0 3.723,-0.703 4.963,-2.068 1.199,-1.406 1.819,-2.895 1.819,-4.549 0,-1.654 -0.62,-3.184 -1.86,-4.549 -1.241,-1.406 -2.896,-2.067 -4.922,-2.067 h -8.146 z m 23.944,-2.813 c 2.48,-2.646 5.665,-3.97 9.552,-3.97 3.888,0 7.072,1.323 9.595,3.929 2.48,2.646 3.722,5.913 3.722,9.883 0,3.929 -1.241,7.237 -3.722,9.843 -2.481,2.646 -5.707,3.93 -9.595,3.93 -3.887,0 -7.029,-1.282 -9.552,-3.93 -2.481,-2.604 -3.764,-5.914 -3.764,-9.843 0,-3.97 1.24,-7.236 3.722,-9.842 z m 3.598,16.666 c 3.104,3.288 8.285,3.438 11.574,0.334 0.115,-0.106 0.227,-0.22 0.335,-0.334 1.654,-1.737 2.481,-4.013 2.481,-6.824 0,-2.812 -0.827,-5.086 -2.481,-6.822 -1.654,-1.654 -3.639,-2.564 -5.955,-2.564 -2.274,0 -4.259,0.868 -5.954,2.564 -1.654,1.736 -2.481,4.011 -2.481,6.822 -0.002,2.811 0.825,5.087 2.481,6.824 z m 33.951,6.946 c -3.309,0 -6.204,-1.323 -8.686,-3.93 -2.445,-2.684 -3.75,-6.213 -3.639,-9.842 0,-3.928 1.24,-7.195 3.639,-9.842 3.467,-4.068 9.293,-5.186 14.02,-2.688 1.57,0.826 2.729,1.902 3.516,3.143 h 0.207 l -0.207,-3.598 v -11.95 h 4.838 v 37.879 h -4.631 v -3.598 h -0.207 c -0.826,1.24 -1.943,2.315 -3.516,3.185 -1.57,0.827 -3.35,1.241 -5.334,1.241 z m 0.826,-4.423 c 2.275,0 4.219,-0.826 5.789,-2.521 1.654,-1.696 2.439,-3.971 2.439,-6.824 0,-2.895 -0.826,-5.127 -2.398,-6.822 -1.654,-1.696 -3.557,-2.564 -5.871,-2.564 -2.232,0 -4.178,0.827 -5.79,2.564 -1.654,1.695 -2.481,3.969 -2.481,6.781 0,2.854 0.827,5.129 2.481,6.823 1.612,1.694 3.557,2.563 5.79,2.563 z m 29.775,4.423 c -3.889,0 -7.072,-1.281 -9.596,-3.93 -2.48,-2.604 -3.723,-5.912 -3.723,-9.842 0,-3.97 1.24,-7.236 3.723,-9.883 2.48,-2.605 5.707,-3.929 9.596,-3.929 4.984,-0.188 9.547,2.798 11.371,7.443 l -4.467,1.86 c -1.051,-3.062 -4.006,-5.054 -7.236,-4.879 -2.15,0 -4.053,0.91 -5.707,2.646 -1.654,1.778 -2.439,4.012 -2.439,6.74 0,2.688 0.828,4.963 2.48,6.699 1.654,1.777 3.516,2.646 5.666,2.646 3.639,0 6.121,-1.654 7.525,-4.88 l 4.342,1.86 c -1.902,4.66 -6.509,7.634 -11.535,7.449 z m 23.075,0 c -2.771,0 -5.086,-0.785 -6.904,-2.356 -1.84,-1.56 -2.861,-3.877 -2.771,-6.286 0,-2.813 1.074,-5.045 3.268,-6.615 2.363,-1.675 5.209,-2.529 8.104,-2.439 2.855,0 5.17,0.537 7.029,1.57 v -0.744 c 0,-1.902 -0.66,-3.391 -1.984,-4.549 -1.324,-1.158 -3.037,-1.779 -4.797,-1.736 -1.406,0 -2.688,0.33 -3.846,1.033 -1.158,0.662 -1.943,1.572 -2.357,2.73 l -4.424,-1.902 c 0.578,-1.531 1.777,-2.979 3.557,-4.301 1.736,-1.324 4.053,-1.985 6.947,-1.985 3.307,0 6.078,0.951 8.271,2.895 2.189,1.944 3.309,4.673 3.309,8.188 v 15.672 h -4.674 v -3.598 h -0.207 c -1.846,2.912 -5.117,4.604 -8.561,4.426 h 0.041 v -0.003 z m 0.785,-4.423 c 1.986,0 3.807,-0.744 5.459,-2.232 1.654,-1.53 2.48,-3.309 2.48,-5.335 -1.404,-1.116 -3.475,-1.653 -6.201,-1.653 -2.357,0 -4.137,0.496 -5.377,1.488 -1.158,1.033 -1.777,2.232 -1.777,3.598 0,1.281 0.578,2.274 1.654,3.02 1.074,0.744 2.355,1.115 3.721,1.115 h 0.041 z m 26.797,4.423 c -4.953,0.184 -9.48,-2.786 -11.289,-7.401 l 4.344,-1.778 c 1.363,3.227 3.721,4.881 7.029,4.881 1.488,0 2.729,-0.373 3.723,-1.035 0.906,-0.571 1.455,-1.572 1.445,-2.646 0,-1.653 -1.197,-2.813 -3.557,-3.433 l -5.209,-1.24 c -1.73,-0.464 -3.338,-1.297 -4.715,-2.439 -1.463,-1.138 -2.293,-2.905 -2.232,-4.755 0,-2.316 1.033,-4.136 3.061,-5.583 2.113,-1.453 4.631,-2.206 7.193,-2.15 2.316,0 4.344,0.538 6.162,1.571 1.779,1.033 3.063,2.48 3.848,4.467 l -4.219,1.736 c -0.951,-2.274 -2.938,-3.433 -5.914,-3.433 -1.447,0 -2.688,0.29 -3.68,0.91 -0.951,0.579 -1.447,1.405 -1.447,2.398 0,1.489 1.115,2.481 3.432,3.019 l 5.129,1.24 c 2.396,0.537 4.217,1.529 5.375,2.895 1.158,1.366 1.738,2.896 1.738,4.674 0,2.314 -0.951,4.26 -2.855,5.789 -1.903,1.57 -4.343,2.313 -7.362,2.313 z m 24.812,-0.414 c -2.729,0 -4.797,-0.702 -6.244,-2.149 -1.523,-1.678 -2.299,-3.899 -2.15,-6.162 v -13.563 h -4.549 v -4.466 h 4.549 v -7.898 h 4.881 v 7.898 h 6.326 v 4.466 h -6.326 v 13.233 c 0,2.813 1.156,4.217 3.473,4.217 0.91,0 1.654,-0.164 2.232,-0.412 l 1.654,4.135 c -1.033,0.496 -2.314,0.703 -3.887,0.703 h 0.041 z m 16.996,0.414 c -4.953,0.184 -9.482,-2.786 -11.289,-7.401 l 4.342,-1.778 c 1.365,3.227 3.723,4.881 7.031,4.881 1.486,0 2.729,-0.373 3.721,-1.035 0.908,-0.571 1.455,-1.572 1.447,-2.646 0,-1.653 -1.199,-2.813 -3.557,-3.433 l -5.211,-1.24 c -1.729,-0.464 -3.338,-1.297 -4.715,-2.439 -1.461,-1.138 -2.291,-2.905 -2.232,-4.755 0,-2.316 1.033,-4.136 3.061,-5.583 2.115,-1.453 4.631,-2.206 7.195,-2.15 2.314,0 4.342,0.538 6.162,1.571 1.777,1.033 3.061,2.48 3.846,4.467 l -4.217,1.736 c -0.951,-2.274 -2.938,-3.433 -5.914,-3.433 -1.447,0 -2.689,0.29 -3.682,0.91 -0.992,0.579 -1.447,1.405 -1.447,2.398 0,1.489 1.117,2.481 3.434,3.019 l 5.127,1.24 c 2.398,0.537 4.219,1.529 5.377,2.895 1.156,1.365 1.736,2.896 1.736,4.674 0,2.314 -0.951,4.26 -2.855,5.789 -1.901,1.57 -4.34,2.313 -7.36,2.313 z m -374.165,-21.669 c 0,-11.992 10.008,-21.711 22,-21.711 5.567,-0.087 10.935,2.075 14.888,5.997 l -4.219,4.136 c -6.246,-5.894 -16.087,-5.607 -21.979,0.639 -2.767,2.934 -4.286,6.826 -4.238,10.857 0,8.725 6.823,15.756 15.549,15.756 4.104,0.172 8.088,-1.406 10.959,-4.343 1.654,-1.654 2.812,-4.137 3.226,-7.443 h -14.186 v -5.913 h 19.974 c 0.207,1.074 0.331,2.314 0.331,3.721 0.181,5.113 -1.662,10.09 -5.128,13.854 -3.96,4.1 -9.482,6.311 -15.177,6.078 -12.015,0.025 -21.819,-9.613 -22,-21.628 z m 58.184,-5.996 c 7.604,-0.138 13.88,5.916 14.018,13.52 0.002,0.14 0.003,0.277 10e-4,0.416 0.115,7.604 -5.955,13.863 -13.56,13.979 -0.153,0.002 -0.307,0.002 -0.459,0 -7.604,0.115 -13.862,-5.957 -13.978,-13.562 -0.002,-0.14 -0.002,-0.278 0,-0.418 -0.115,-7.581 5.938,-13.82 13.519,-13.936 0.154,-0.002 0.306,-10e-4 0.459,10e-4 z m 0,22.372 c 4.218,0 7.898,-3.475 7.898,-8.479 0,-5.045 -3.681,-8.477 -7.857,-8.477 -4.301,0 -7.898,3.432 -7.898,8.477 -0.001,5.006 3.64,8.479 7.857,8.479 z m 30.601,-22.372 c 7.604,-0.115 13.862,5.957 13.977,13.562 0.002,0.125 0.002,0.25 10e-4,0.374 0.115,7.604 -5.957,13.863 -13.561,13.979 -0.14,0.002 -0.278,0.002 -0.417,0 -7.604,0.138 -13.881,-5.916 -14.019,-13.521 -0.003,-0.151 -0.003,-0.306 0,-0.459 -0.116,-7.581 5.936,-13.82 13.518,-13.938 0.167,-10e-4 0.334,-10e-4 0.501,0.003 z m 0,22.372 c 4.218,0 7.857,-3.475 7.857,-8.479 0,-5.045 -3.599,-8.477 -7.857,-8.477 -4.26,0 -7.898,3.432 -7.898,8.477 0,5.004 3.681,8.479 7.856,8.479 z m 37.509,-21.917 h 5.872 v 25.061 c 0,10.338 -6.079,14.558 -13.274,14.558 -5.437,0.032 -10.347,-3.24 -12.406,-8.271 l 5.376,-2.232 c 0.909,2.273 3.226,4.963 6.988,4.963 4.549,0 7.443,-2.896 7.443,-8.188 v -2.024 h -0.206 c -1.864,2.094 -4.558,3.26 -7.361,3.184 -7.505,-0.246 -13.447,-6.428 -13.398,-13.936 0,-7.857 6.41,-14.021 13.398,-14.021 3.309,0 5.996,1.489 7.361,3.143 h 0.206 z m -7.031,21.544 c 4.135,0 7.443,-3.516 7.443,-8.436 0,-4.922 -3.309,-8.479 -7.443,-8.479 -4.219,0 -7.774,3.557 -7.774,8.479 0.001,4.882 3.556,8.436 7.774,8.436 z m 17.08,4.964 v -41.023 h 6.078 v 41.023 z m 22.91,-4.55 c 3.143,0 5.293,-1.571 6.905,-3.887 l 4.756,3.184 c -2.604,3.891 -6.981,6.22 -11.661,6.203 -7.537,0.095 -13.723,-5.939 -13.815,-13.477 -0.003,-0.167 -0.001,-0.334 0.003,-0.502 0,-8.27 5.996,-13.936 13.232,-13.936 7.196,0 10.752,5.707 11.91,8.85 l 0.62,1.572 -18.691,7.732 c 1.447,2.771 3.64,4.217 6.782,4.217 z m -0.414,-17.078 c -3.184,0 -7.526,2.771 -7.361,8.146 l 12.489,-5.169 c -0.662,-1.737 -2.729,-2.937 -5.169,-2.937 z"
   inkscape:export-filename="D:\Área de Trabalho\Dev\desafio-1\images\google-podcasts.png"
   inkscape:export-xdpi="63.28278"
   inkscape:export-ydpi="63.28278" /><g
   transform="translate(0.66272683,241.22703)"
   id="g17"><g
     id="g4"><path
       style="fill:#3d4043"
       inkscape:connector-curvature="0"
       d="m 139.005,54.317 h -15.098 l -3.623,10.705 h -6.397 l 14.3,-39.607 h 6.642 l 14.3,39.607 h -6.505 z m -13.534,-4.938 h 11.968 l -5.901,-17.376 h -0.165 z m 55.259,1.208 c 0,8.975 -4.806,14.738 -12.051,14.738 -4.119,0 -7.381,-1.84 -9.085,-5.055 h -0.137 v 14.301 h -5.93 v -38.43 h 5.736 v 4.806 h 0.107 c 1.646,-3.103 5.161,-5.103 9.197,-5.103 7.333,10e-4 12.163,5.794 12.163,14.743 z m -6.09,0 c 0,-5.848 -3.019,-9.689 -7.63,-9.689 -4.528,0 -7.576,3.926 -7.576,9.689 0,5.818 3.048,9.719 7.576,9.719 4.611,-0.004 7.63,-3.823 7.63,-9.719 z m 38.099,0 c 0,8.975 -4.805,14.738 -12.05,14.738 -4.119,0 -7.382,-1.84 -9.085,-5.055 h -0.136 v 14.301 h -5.93 v -38.43 h 5.736 v 4.806 h 0.107 c 1.646,-3.103 5.161,-5.103 9.197,-5.103 7.327,10e-4 12.161,5.794 12.161,14.743 z m -6.095,0 c 0,-5.848 -3.019,-9.689 -7.63,-9.689 -4.528,0 -7.576,3.926 -7.576,9.689 0,5.818 3.048,9.719 7.576,9.719 4.61,-0.004 7.63,-3.823 7.63,-9.719 z m 11.114,-25.172 h 5.93 v 39.607 h -5.93 z m 38.006,31.127 c -0.795,5.243 -5.902,8.838 -12.436,8.838 -8.399,0 -13.614,-5.629 -13.614,-14.656 0,-9.057 5.244,-14.934 13.365,-14.934 7.99,0 13.009,5.488 13.009,14.246 v 2.031 h -20.396 v 0.355 c 0,4.94 3.102,8.18 7.767,8.18 3.292,0 5.872,-1.563 6.67,-4.062 z m -20.037,-8.619 h 14.437 c -0.136,-4.42 -2.965,-7.326 -7.08,-7.326 -4.094,0 -7.06,2.959 -7.357,7.326 z m 54.16,-22.508 c 7.686,0 13.039,5.297 13.039,13.01 0,7.741 -5.463,13.063 -13.229,13.063 h -8.51 v 13.53 h -6.15 V 25.414 Z m -8.701,20.916 h 7.057 c 5.35,0 8.396,-2.882 8.396,-7.877 0,-4.996 -3.047,-7.85 -8.369,-7.85 h -7.078 v 15.727 z m 24.519,4.256 c 0,-9.086 5.352,-14.797 13.695,-14.797 8.371,0 13.695,5.707 13.695,14.797 0,9.114 -5.297,14.797 -13.695,14.797 -8.398,0 -13.695,-5.688 -13.695,-14.797 z m 21.356,0 c 0,-6.232 -2.854,-9.908 -7.658,-9.908 -4.807,0 -7.658,3.705 -7.658,9.908 0,6.256 2.854,9.908 7.658,9.908 4.804,0 7.658,-3.652 7.658,-9.908 z m 10.142,0 c 0,-8.92 4.914,-14.738 12.076,-14.738 4.143,0 7.41,1.918 9.057,5.104 h 0.107 V 25.416 h 5.955 v 39.606 h -5.766 v -4.911 h -0.107 c -1.703,3.292 -4.996,5.215 -9.197,5.215 -7.211,-10e-4 -12.125,-5.819 -12.125,-14.739 z m 6.063,0 c 0,5.93 3.02,9.719 7.631,9.719 4.557,0 7.602,-3.843 7.602,-9.719 0,-5.818 -3.049,-9.689 -7.602,-9.689 -4.612,-0.004 -7.631,3.812 -7.631,9.689 z m 46.861,-4.504 c -0.52,-3.047 -2.91,-5.326 -6.807,-5.326 -4.557,0 -7.576,3.816 -7.576,9.826 0,6.148 3.049,9.854 7.631,9.854 3.68,0 6.096,-1.84 6.752,-5.186 h 5.711 c -0.66,6.066 -5.516,10.128 -12.518,10.128 -8.232,0 -13.613,-5.628 -13.613,-14.796 0,-8.975 5.381,-14.797 13.561,-14.797 7.41,0 12.021,4.665 12.518,10.293 h -5.656 v 0.004 z m 9.463,10.678 c 0,-5.049 3.871,-8.014 11.063,-8.453 l 7.684,-0.438 v -2.195 c 0,-3.268 -2.166,-5.021 -5.93,-5.021 -3.104,0 -5.381,1.592 -5.85,4.061 h -5.545 c 0.166,-5.16 4.996,-8.92 11.559,-8.92 7.08,0 11.662,3.706 11.662,9.441 v 19.792 h -5.678 V 60.28 h -0.137 c -1.621,3.102 -5.219,5.16 -9.115,5.16 -5.735,-0.003 -9.713,-3.548 -9.713,-8.679 z m 18.744,-2.552 v -2.225 l -6.918,0.438 c -3.842,0.219 -5.871,1.702 -5.871,4.2 0,2.415 2.113,4.119 5.408,4.119 4.197,-0.002 7.381,-2.798 7.381,-6.532 z m 23.238,-18.394 c 6.393,0 10.975,3.539 11.115,8.646 h -5.57 c -0.252,-2.551 -2.416,-4.118 -5.711,-4.118 -3.209,0 -5.352,1.479 -5.352,3.733 0,1.729 1.428,2.883 4.416,3.623 l 4.859,1.125 c 5.818,1.397 8.014,3.539 8.014,7.767 0,5.215 -4.941,8.782 -11.996,8.782 -6.807,0 -11.389,-3.485 -11.826,-8.758 h 5.871 c 0.414,2.771 2.639,4.255 6.232,4.255 3.539,0 5.768,-1.456 5.768,-3.759 0,-1.787 -1.1,-2.746 -4.117,-3.517 l -5.16,-1.261 c -5.215,-1.266 -7.852,-3.925 -7.852,-7.932 -10e-4,-5.095 4.581,-8.586 11.309,-8.586 z m 24.885,-6.501 v 6.832 h 5.488 v 4.693 h -5.488 v 15.922 c 0,2.473 1.102,3.623 3.516,3.623 0.605,0 1.564,-0.084 1.947,-0.138 v 4.664 c -0.656,0.166 -1.977,0.272 -3.291,0.272 -5.848,0 -8.125,-2.194 -8.125,-7.795 V 40.839 h -4.203 v -4.695 h 4.203 v -6.831 z m 21.393,6.501 c 6.395,0 10.977,3.539 11.115,8.646 h -5.568 c -0.252,-2.551 -2.416,-4.118 -5.711,-4.118 -3.209,0 -5.352,1.479 -5.352,3.733 0,1.729 1.426,2.883 4.416,3.623 l 4.859,1.125 c 5.816,1.397 8.014,3.539 8.014,7.767 0,5.215 -4.941,8.782 -11.996,8.782 -6.807,0 -11.389,-3.485 -11.828,-8.758 h 5.873 c 0.414,2.771 2.639,4.255 6.232,4.255 3.539,0 5.768,-1.456 5.768,-3.759 0,-1.787 -1.1,-2.746 -4.117,-3.517 l -5.16,-1.261 c -5.217,-1.266 -7.85,-3.925 -7.85,-7.932 -0.006,-5.095 4.576,-8.586 11.305,-8.586 z"
       id="path2-1" /></g><linearGradient
     id="linearGradient851"
     gradientUnits="userSpaceOnUse"
     x1="-18.3643"
     y1="-224.998"
     x2="-17.3643"
     y2="-224.998"
     gradientTransform="matrix(0,92.6031,-92.6031,0,-20783.805,1704.2273)"><stop
       offset="0"
       style="stop-color:#AE6BA9"
       id="stop847" /><stop
       offset="1"
       style="stop-color:#694193"
       id="stop849" /></linearGradient><path
     style="fill:url(#SVGID_1_)"
     inkscape:connector-curvature="0"
     d="m 96.15,83.961 c -2.275,5.39 -6.838,9.483 -12.443,11.161 -2.973,0.881 -6.633,1.18 -11.19,1.18 H 30.846 c -4.557,0 -8.217,-0.299 -11.19,-1.18 C 14.046,93.452 9.48,89.356 7.213,83.961 5.398,79.355 5.377,74.127 5.377,70.835 V 29.163 c 0,-3.292 0.017,-8.519 1.832,-13.125 2.275,-5.391 6.838,-9.483 12.443,-11.162 2.974,-0.881 6.633,-1.178 11.19,-1.178 h 41.672 c 4.557,0 8.217,0.297 11.19,1.178 5.61,1.669 10.176,5.766 12.443,11.162 1.812,4.606 1.832,9.833 1.832,13.125 v 41.671 c 0.003,3.293 -0.018,8.52 -1.829,13.127 z"
     id="path11" /><path
     style="fill:none"
     inkscape:connector-curvature="0"
     d="m 96.15,83.961 c -2.275,5.39 -6.838,9.483 -12.443,11.161 -2.973,0.881 -6.633,1.18 -11.19,1.18 H 30.846 c -4.557,0 -8.217,-0.299 -11.19,-1.18 C 14.046,93.452 9.48,89.356 7.213,83.961 5.398,79.355 5.377,74.127 5.377,70.835 V 29.163 c 0,-3.292 0.017,-8.519 1.832,-13.125 2.275,-5.391 6.838,-9.483 12.443,-11.162 2.974,-0.881 6.633,-1.178 11.19,-1.178 h 41.672 c 4.557,0 8.217,0.297 11.19,1.178 5.61,1.669 10.176,5.766 12.443,11.162 1.812,4.606 1.832,9.833 1.832,13.125 v 41.671 c 0.003,3.293 -0.018,8.52 -1.829,13.127 z"
     id="path13" /><path
     style="fill:#ffffff"
     inkscape:connector-curvature="0"
     d="m 58.395,56.925 c -1.39,-1.465 -3.829,-2.408 -6.711,-2.408 -2.882,0 -5.322,0.939 -6.712,2.408 -0.712,0.715 -1.148,1.66 -1.228,2.666 -0.236,2.163 -0.104,4.028 0.149,7.006 0.24,2.838 0.699,6.625 1.298,10.479 0.426,2.742 0.773,4.224 1.087,5.285 0.509,1.717 2.419,3.222 5.405,3.222 2.985,0 4.892,-1.501 5.405,-3.222 0.314,-1.06 0.662,-2.539 1.087,-5.285 0.6,-3.854 1.059,-7.638 1.299,-10.479 0.252,-2.978 0.384,-4.842 0.148,-7.006 -0.079,-1.006 -0.514,-1.951 -1.227,-2.666 z M 44.111,43.868 c 0,4.188 3.394,7.58 7.58,7.58 4.186,0 7.58,-3.393 7.58,-7.58 0,-4.186 -3.394,-7.58 -7.58,-7.58 -4.186,0 -7.58,3.395 -7.58,7.58 z m 7.486,-29.91 C 33.873,14.007 19.349,28.386 19.129,46.11 c -0.178,14.357 8.986,26.64 21.785,31.139 0.229,0.08 0.479,-0.04 0.559,-0.27 0.023,-0.065 0.03,-0.137 0.021,-0.207 C 41.324,75.657 41.167,74.54 41.022,73.436 40.973,73.047 40.723,72.713 40.365,72.555 29.917,67.995 23.2,57.641 23.298,46.242 23.448,30.822 36.04,18.25 51.46,18.126 67.224,17.998 80.093,30.788 80.093,46.522 80.081,57.823 73.38,68.043 63.022,72.56 c -0.358,0.158 -0.608,0.492 -0.658,0.881 -0.146,1.113 -0.303,2.224 -0.471,3.333 -0.037,0.237 0.125,0.459 0.362,0.495 0.072,0.012 0.145,0.005 0.212,-0.021 C 75.142,72.791 84.256,60.699 84.256,46.519 84.257,28.535 69.598,13.908 51.597,13.958 Z M 51.01,28.899 c 9.75,-0.375 17.957,7.225 18.332,16.975 0.008,0.219 0.013,0.439 0.013,0.658 0.002,4.875 -2.018,9.531 -5.579,12.861 -0.29,0.273 -0.445,0.66 -0.426,1.06 0.066,1.211 0.042,2.39 -0.037,3.717 -0.013,0.237 0.168,0.44 0.405,0.453 0.094,0.007 0.187,-0.021 0.265,-0.071 C 69.947,60.49 73.517,53.744 73.519,46.53 73.507,34.47 63.722,24.705 51.664,24.716 c -0.274,0 -0.549,0.006 -0.823,0.017 -11.542,0.446 -20.805,9.962 -20.95,21.516 -0.092,7.315 3.489,14.19 9.536,18.308 0.194,0.133 0.459,0.084 0.592,-0.11 0.054,-0.079 0.08,-0.175 0.074,-0.271 -0.088,-1.238 -0.101,-2.481 -0.038,-3.722 0.022,-0.399 -0.134,-0.787 -0.426,-1.06 -3.683,-3.441 -5.711,-8.299 -5.57,-13.336 0.279,-9.28 7.676,-16.767 16.951,-17.159 z"
     id="path15" /></g><g
   id="g1055"
   transform="translate(7.9527559,132.54593)"><g
     style="fill:#666666"
     transform="translate(-4.6391104,2.6443528)"
     id="g1024"><path
       id="path1022"
       d="m 139.005,54.317 h -15.098 l -3.623,10.705 h -6.397 l 14.3,-39.607 h 6.642 l 14.3,39.607 h -6.505 z m -13.534,-4.938 h 11.968 l -5.901,-17.376 h -0.165 z m 55.259,1.208 c 0,8.975 -4.806,14.738 -12.051,14.738 -4.119,0 -7.381,-1.84 -9.085,-5.055 h -0.137 v 14.301 h -5.93 v -38.43 h 5.736 v 4.806 h 0.107 c 1.646,-3.103 5.161,-5.103 9.197,-5.103 7.333,10e-4 12.163,5.794 12.163,14.743 z m -6.09,0 c 0,-5.848 -3.019,-9.689 -7.63,-9.689 -4.528,0 -7.576,3.926 -7.576,9.689 0,5.818 3.048,9.719 7.576,9.719 4.611,-0.004 7.63,-3.823 7.63,-9.719 z m 38.099,0 c 0,8.975 -4.805,14.738 -12.05,14.738 -4.119,0 -7.382,-1.84 -9.085,-5.055 h -0.136 v 14.301 h -5.93 v -38.43 h 5.736 v 4.806 h 0.107 c 1.646,-3.103 5.161,-5.103 9.197,-5.103 7.327,10e-4 12.161,5.794 12.161,14.743 z m -6.095,0 c 0,-5.848 -3.019,-9.689 -7.63,-9.689 -4.528,0 -7.576,3.926 -7.576,9.689 0,5.818 3.048,9.719 7.576,9.719 4.61,-0.004 7.63,-3.823 7.63,-9.719 z m 11.114,-25.172 h 5.93 v 39.607 h -5.93 z m 38.006,31.127 c -0.795,5.243 -5.902,8.838 -12.436,8.838 -8.399,0 -13.614,-5.629 -13.614,-14.656 0,-9.057 5.244,-14.934 13.365,-14.934 7.99,0 13.009,5.488 13.009,14.246 v 2.031 h -20.396 v 0.355 c 0,4.94 3.102,8.18 7.767,8.18 3.292,0 5.872,-1.563 6.67,-4.062 z m -20.037,-8.619 h 14.437 c -0.136,-4.42 -2.965,-7.326 -7.08,-7.326 -4.094,0 -7.06,2.959 -7.357,7.326 z m 54.16,-22.508 c 7.686,0 13.039,5.297 13.039,13.01 0,7.741 -5.463,13.063 -13.229,13.063 h -8.51 v 13.53 h -6.15 V 25.414 Z m -8.701,20.916 h 7.057 c 5.35,0 8.396,-2.882 8.396,-7.877 0,-4.996 -3.047,-7.85 -8.369,-7.85 h -7.078 v 15.727 z m 24.519,4.256 c 0,-9.086 5.352,-14.797 13.695,-14.797 8.371,0 13.695,5.707 13.695,14.797 0,9.114 -5.297,14.797 -13.695,14.797 -8.398,0 -13.695,-5.688 -13.695,-14.797 z m 21.356,0 c 0,-6.232 -2.854,-9.908 -7.658,-9.908 -4.807,0 -7.658,3.705 -7.658,9.908 0,6.256 2.854,9.908 7.658,9.908 4.804,0 7.658,-3.652 7.658,-9.908 z m 10.142,0 c 0,-8.92 4.914,-14.738 12.076,-14.738 4.143,0 7.41,1.918 9.057,5.104 h 0.107 V 25.416 h 5.955 v 39.606 h -5.766 v -4.911 h -0.107 c -1.703,3.292 -4.996,5.215 -9.197,5.215 -7.211,-10e-4 -12.125,-5.819 -12.125,-14.739 z m 6.063,0 c 0,5.93 3.02,9.719 7.631,9.719 4.557,0 7.602,-3.843 7.602,-9.719 0,-5.818 -3.049,-9.689 -7.602,-9.689 -4.612,-0.004 -7.631,3.812 -7.631,9.689 z m 46.861,-4.504 c -0.52,-3.047 -2.91,-5.326 -6.807,-5.326 -4.557,0 -7.576,3.816 -7.576,9.826 0,6.148 3.049,9.854 7.631,9.854 3.68,0 6.096,-1.84 6.752,-5.186 h 5.711 c -0.66,6.066 -5.516,10.128 -12.518,10.128 -8.232,0 -13.613,-5.628 -13.613,-14.796 0,-8.975 5.381,-14.797 13.561,-14.797 7.41,0 12.021,4.665 12.518,10.293 h -5.656 v 0.004 z m 9.463,10.678 c 0,-5.049 3.871,-8.014 11.063,-8.453 l 7.684,-0.438 v -2.195 c 0,-3.268 -2.166,-5.021 -5.93,-5.021 -3.104,0 -5.381,1.592 -5.85,4.061 h -5.545 c 0.166,-5.16 4.996,-8.92 11.559,-8.92 7.08,0 11.662,3.706 11.662,9.441 v 19.792 h -5.678 V 60.28 h -0.137 c -1.621,3.102 -5.219,5.16 -9.115,5.16 -5.735,-0.003 -9.713,-3.548 -9.713,-8.679 z m 18.744,-2.552 v -2.225 l -6.918,0.438 c -3.842,0.219 -5.871,1.702 -5.871,4.2 0,2.415 2.113,4.119 5.408,4.119 4.197,-0.002 7.381,-2.798 7.381,-6.532 z m 23.238,-18.394 c 6.393,0 10.975,3.539 11.115,8.646 h -5.57 c -0.252,-2.551 -2.416,-4.118 -5.711,-4.118 -3.209,0 -5.352,1.479 -5.352,3.733 0,1.729 1.428,2.883 4.416,3.623 l 4.859,1.125 c 5.818,1.397 8.014,3.539 8.014,7.767 0,5.215 -4.941,8.782 -11.996,8.782 -6.807,0 -11.389,-3.485 -11.826,-8.758 h 5.871 c 0.414,2.771 2.639,4.255 6.232,4.255 3.539,0 5.768,-1.456 5.768,-3.759 0,-1.787 -1.1,-2.746 -4.117,-3.517 l -5.16,-1.261 c -5.215,-1.266 -7.852,-3.925 -7.852,-7.932 -10e-4,-5.095 4.581,-8.586 11.309,-8.586 z m 24.885,-6.501 v 6.832 h 5.488 v 4.693 h -5.488 v 15.922 c 0,2.473 1.102,3.623 3.516,3.623 0.605,0 1.564,-0.084 1.947,-0.138 v 4.664 c -0.656,0.166 -1.977,0.272 -3.291,0.272 -5.848,0 -8.125,-2.194 -8.125,-7.795 V 40.839 h -4.203 v -4.695 h 4.203 v -6.831 z m 21.393,6.501 c 6.395,0 10.977,3.539 11.115,8.646 h -5.568 c -0.252,-2.551 -2.416,-4.118 -5.711,-4.118 -3.209,0 -5.352,1.479 -5.352,3.733 0,1.729 1.426,2.883 4.416,3.623 l 4.859,1.125 c 5.816,1.397 8.014,3.539 8.014,7.767 0,5.215 -4.941,8.782 -11.996,8.782 -6.807,0 -11.389,-3.485 -11.828,-8.758 h 5.873 c 0.414,2.771 2.639,4.255 6.232,4.255 3.539,0 5.768,-1.456 5.768,-3.759 0,-1.787 -1.1,-2.746 -4.117,-3.517 l -5.16,-1.261 c -5.217,-1.266 -7.85,-3.925 -7.85,-7.932 -0.006,-5.095 4.576,-8.586 11.305,-8.586 z"
       inkscape:connector-curvature="0"
       style="fill:#666666" /></g><path
     id="path1032"
     d="m 91.51089,86.605353 c -2.275,5.39 -6.838,9.483 -12.443,11.161 -2.973,0.881 -6.633,1.18 -11.19,1.18 h -41.671 c -4.557,0 -8.217,-0.299 -11.19,-1.18 -5.6100004,-1.67 -10.1760004,-5.766 -12.4430004,-11.161 -1.815,-4.606 -1.836,-9.834 -1.836,-13.126 v -41.672 c 0,-3.292 0.017,-8.519 1.832,-13.125 2.275,-5.391 6.838,-9.4830002 12.4430004,-11.1620002 2.974,-0.881 6.633,-1.178 11.19,-1.178 h 41.672 c 4.557,0 8.217,0.297 11.19,1.178 5.61,1.669 10.176,5.7660002 12.443,11.1620002 1.812,4.606 1.832,9.833 1.832,13.125 v 41.671 c 0.003,3.293 -0.018,8.52 -1.829,13.127 z"
     inkscape:connector-curvature="0"
     style="fill:#666666" /><path
     id="path1034"
     d="m 91.51089,86.605353 c -2.275,5.39 -6.838,9.483 -12.443,11.161 -2.973,0.881 -6.633,1.18 -11.19,1.18 h -41.671 c -4.557,0 -8.217,-0.299 -11.19,-1.18 -5.6100004,-1.67 -10.1760004,-5.766 -12.4430004,-11.161 -1.815,-4.606 -1.836,-9.834 -1.836,-13.126 v -41.672 c 0,-3.292 0.017,-8.519 1.832,-13.125 2.275,-5.391 6.838,-9.4830002 12.4430004,-11.1620002 2.974,-0.881 6.633,-1.178 11.19,-1.178 h 41.672 c 4.557,0 8.217,0.297 11.19,1.178 5.61,1.669 10.176,5.7660002 12.443,11.1620002 1.812,4.606 1.832,9.833 1.832,13.125 v 41.671 c 0.003,3.293 -0.018,8.52 -1.829,13.127 z"
     inkscape:connector-curvature="0"
     style="fill:none" /><path
     id="path1036"
     d="m 53.75589,59.569353 c -1.39,-1.465 -3.829,-2.408 -6.711,-2.408 -2.882,0 -5.322,0.939 -6.712,2.408 -0.712,0.715 -1.148,1.66 -1.228,2.666 -0.236,2.163 -0.104,4.028 0.149,7.006 0.24,2.838 0.699,6.625 1.298,10.479 0.426,2.742 0.773,4.224 1.087,5.285 0.509,1.717 2.419,3.222 5.405,3.222 2.985,0 4.892,-1.501 5.405,-3.222 0.314,-1.06 0.662,-2.539 1.087,-5.285 0.6,-3.854 1.059,-7.638 1.299,-10.479 0.252,-2.978 0.384,-4.842 0.148,-7.006 -0.079,-1.006 -0.514,-1.951 -1.227,-2.666 z m -14.284,-13.057 c 0,4.188 3.394,7.58 7.58,7.58 4.186,0 7.58,-3.393 7.58,-7.58 0,-4.186 -3.394,-7.58 -7.58,-7.58 -4.186,0 -7.58,3.395 -7.58,7.58 z m 7.486,-29.91 c -17.724,0.049 -32.248,14.428 -32.468,32.152 -0.178,14.357 8.986,26.64 21.785,31.139 0.229,0.08 0.479,-0.04 0.559,-0.27 0.023,-0.065 0.03,-0.137 0.021,-0.207 -0.17,-1.115 -0.327,-2.232 -0.472,-3.336 -0.049,-0.389 -0.299,-0.723 -0.657,-0.881 -10.448,-4.56 -17.165,-14.914 -17.067,-26.313 0.15,-15.42 12.742,-27.992 28.162,-28.116 15.764,-0.128 28.633,12.662 28.633,28.396 -0.012,11.301 -6.713,21.521 -17.071,26.038 -0.358,0.158 -0.608,0.492 -0.658,0.881 -0.146,1.113 -0.303,2.224 -0.471,3.333 -0.037,0.237 0.125,0.459 0.362,0.495 0.072,0.012 0.145,0.005 0.212,-0.021 12.675,-4.457 21.789,-16.549 21.789,-30.729 0.001,-17.984 -14.658,-32.611 -32.659,-32.561 z m -0.587,14.941 c 9.75,-0.375 17.957,7.225 18.332,16.975 0.008,0.219 0.013,0.439 0.013,0.658 0.002,4.875 -2.018,9.531 -5.579,12.861 -0.29,0.273 -0.445,0.66 -0.426,1.06 0.066,1.211 0.042,2.39 -0.037,3.717 -0.013,0.237 0.168,0.44 0.405,0.453 0.094,0.007 0.187,-0.021 0.265,-0.071 5.964,-4.062 9.534,-10.808 9.536,-18.022 -0.012,-12.06 -9.797,-21.825 -21.855,-21.814 -0.274,0 -0.549,0.006 -0.823,0.017 -11.542,0.446 -20.805,9.962 -20.95,21.516 -0.092,7.315 3.489,14.19 9.536,18.308 0.194,0.133 0.459,0.084 0.592,-0.11 0.054,-0.079 0.08,-0.175 0.074,-0.271 -0.088,-1.238 -0.101,-2.481 -0.038,-3.722 0.022,-0.399 -0.134,-0.787 -0.426,-1.06 -3.683,-3.441 -5.711,-8.299 -5.57,-13.336 0.279,-9.28 7.676,-16.767 16.951,-17.159 z"
     inkscape:connector-curvature="0"
     style="fill:#ffffff" /></g><g
   transform="matrix(0.57673732,0,0,-0.57673732,-446.01901,226.51718)"
   inkscape:label="spotify-logo"
   id="g1065"
   style="fill:#666666"
   inkscape:export-xdpi="60.463356"
   inkscape:export-ydpi="60.463356"><g
     id="g1067"
     style="fill:#666666"><g
       clip-path="url(#clipPath1073)"
       id="g1069"
       style="fill:#666666"><g
         transform="translate(285.8193,324.3193)"
         id="g1075"
         style="fill:#666666"><path
           inkscape:connector-curvature="0"
           id="path1077"
           style="fill:#666666;fill-opacity:1;fill-rule:nonzero;stroke:none"
           d="m 0,0 c -26.622,15.808 -70.537,17.267 -95.949,9.553 -4.078,-1.239 -8.399,1.065 -9.634,5.145 -1.234,4.083 1.067,8.394 5.149,9.637 C -71.259,33.189 -22.761,31.48 7.885,13.284 11.556,11.108 12.761,6.368 10.586,2.703 8.409,-0.969 3.665,-2.179 0,0 m -0.871,-23.418 c -1.867,-3.03 -5.832,-3.981 -8.858,-2.12 -22.197,13.646 -56.037,17.598 -82.296,9.622 -3.408,-1.027 -7.005,0.893 -8.037,4.292 -1.028,3.406 0.897,6.995 4.295,8.031 29.996,9.102 67.286,4.696 92.779,-10.971 3.026,-1.864 3.981,-5.828 2.117,-8.854 m -10.104,-22.491 c -1.486,-2.43 -4.654,-3.195 -7.079,-1.709 -19.396,11.85 -43.805,14.53 -72.555,7.96 -2.771,-0.632 -5.531,1.104 -6.164,3.872 -0.635,2.769 1.097,5.532 3.871,6.167 31.459,7.188 58.447,4.096 80.217,-9.208 2.428,-1.48 3.192,-4.655 1.71,-7.082 M -48.856,73.216 c -45.611,0 -82.591,-36.976 -82.591,-82.587 0,-45.62 36.98,-82.591 82.591,-82.591 45.616,0 82.59,36.971 82.59,82.591 0,45.611 -36.974,82.587 -82.59,82.587" /></g><g
         transform="translate(343.2124,285.2979)"
         id="g1079"
         style="fill:#666666"><path
           inkscape:connector-curvature="0"
           id="path1081"
           style="fill:#666666;fill-opacity:1;fill-rule:nonzero;stroke:none"
           d="m 0,0 8.172,11.268 c 5.581,-6.065 14.625,-11.519 26.143,-11.519 11.888,0 16.477,5.825 16.477,11.398 0,17.342 -48.065,6.566 -48.065,36.917 0,13.751 11.89,24.282 30.101,24.282 12.758,0 23.29,-4.212 30.847,-11.644 L 55.497,49.923 c -6.563,6.564 -15.359,9.538 -24.033,9.538 -8.419,0 -13.873,-4.212 -13.873,-10.282 0,-15.486 48.065,-5.948 48.065,-36.671 0,-13.749 -9.785,-25.647 -31.966,-25.647 C 18.458,-13.139 7.434,-7.682 0,0" /></g><g
         transform="translate(467.0937,303.6304)"
         id="g1083"
         style="fill:#666666"><path
           inkscape:connector-curvature="0"
           id="path1085"
           style="fill:#666666;fill-opacity:1;fill-rule:nonzero;stroke:none"
           d="m 0,0 c 0,11.647 -6.69,19.822 -16.97,19.822 -6.072,0 -12.387,-3.468 -15.362,-7.929 v -23.661 c 2.85,-4.457 9.29,-8.178 15.362,-8.178 C -6.69,-19.946 0,-11.647 0,0 m -32.332,-21.679 v -31.092 h -13.006 v 82.625 h 13.006 v -8.173 c 4.461,5.942 11.395,9.663 19.2,9.663 C 2.353,31.344 13.38,19.699 13.38,0 c 0,-19.694 -11.027,-31.467 -26.512,-31.467 -7.56,0 -14.245,3.471 -19.2,9.788" /></g><g
         transform="translate(537.834,303.6304)"
         id="g1087"
         style="fill:#666666"><path
           inkscape:connector-curvature="0"
           id="path1089"
           style="fill:#666666;fill-opacity:1;fill-rule:nonzero;stroke:none"
           d="M 0,0 C 0,10.531 -6.072,19.822 -17.216,19.822 -28.245,19.822 -34.44,10.531 -34.44,0 c 0,-10.654 6.195,-19.946 17.224,-19.946 C -6.072,-19.946 0,-10.654 0,0 m -47.942,0 c 0,17.22 11.642,31.344 30.726,31.344 19.072,0 30.722,-14.124 30.722,-31.344 0,-17.098 -11.65,-31.467 -30.722,-31.467 -19.084,0 -30.726,14.369 -30.726,31.467" /></g><g
         transform="translate(567.3203,287.6494)"
         id="g1091"
         style="fill:#666666"><path
           inkscape:connector-curvature="0"
           id="path1093"
           style="fill:#666666;fill-opacity:1;fill-rule:nonzero;stroke:none"
           d="M 0,0 V 34.566 H -9.91 V 45.837 H 0 V 62.191 H 13.004 V 45.837 H 25.147 V 34.566 H 13.004 V 3.223 c 0,-4.092 1.986,-7.188 5.698,-7.188 2.484,0 4.709,1.123 5.698,2.23 l 3.098,-9.908 c -2.351,-2.11 -6.196,-3.843 -12.136,-3.843 C 5.205,-15.486 0,-10.037 0,0" /></g><path
         inkscape:connector-curvature="0"
         id="path1095"
         style="fill:#666666;fill-opacity:1;fill-rule:nonzero;stroke:none"
         d="m 604.11,333.486 h 13.008 V 273.653 H 604.11 Z m -1.486,15.359 c 0,4.461 3.593,8.057 8.055,8.057 4.459,0 8.048,-3.596 8.048,-8.057 0,-4.459 -3.589,-8.047 -8.048,-8.047 -4.462,0 -8.055,3.588 -8.055,8.047" /><g
         transform="translate(637.1885,273.6533)"
         id="g1097"
         style="fill:#666666"><path
           inkscape:connector-curvature="0"
           id="path1099"
           style="fill:#666666;fill-opacity:1;fill-rule:nonzero;stroke:none"
           d="M 0,0 V 48.562 H -9.91 V 59.831 H 0 v 3.349 c 0,13.005 7.556,20.69 18.833,20.69 5.448,0 10.777,-1.368 14.365,-5.208 L 28.12,70.614 c -1.733,1.606 -3.965,2.597 -6.815,2.597 -5.201,0 -8.298,-3.345 -8.298,-10.031 v -3.349 h 12.14 V 48.562 H 13.007 V 0 Z" /></g><g
         transform="translate(671.6299,261.8848)"
         id="g1101"
         style="fill:#666666"><path
           inkscape:connector-curvature="0"
           id="path1103"
           style="fill:#666666;fill-opacity:1;fill-rule:nonzero;stroke:none"
           d="m 0,0 c 1.364,-0.621 3.467,-0.993 4.953,-0.993 4.217,0 6.943,1.243 8.676,5.201 l 2.968,6.817 -24.649,60.577 H 5.941 l 17.47,-44.85 17.466,44.85 H 54.755 L 25.889,0.982 C 21.8,-9.171 14.737,-12.39 5.447,-12.514 c -1.855,0 -5.57,0.374 -7.303,0.868 z" /></g></g></g></g><g
   style="fill:none;fill-rule:evenodd;stroke:none;stroke-width:1"
   id="g1146"
   transform="matrix(1.8023568,0,0,1.8023568,46.723823,-124.32813)"><g
     id="Pocket-Casts-Roundel---Red"><g
       id="Group"><path
         style="fill:#f43e37"
         inkscape:connector-curvature="0"
         d="M 43.2,21.6 C 43.2,33.5296 33.5296,43.2 21.6,43.2 9.6704,43.2 0,33.5296 0,21.6 0,9.6704 9.6704,0 21.6,0 33.5296,0 43.2,9.6704 43.2,21.6"
         id="Fill-23" /><g
         style="fill:#ffffff"
         id="Glyph"
         transform="translate(4.8,4.8)"><path
           inkscape:connector-curvature="0"
           d="M 0,17 C 0,7.6111592 7.6111592,0 17,0 26.388841,0 34,7.6111592 34,17 H 29.75 C 29.75,9.9583694 24.041631,4.25 17,4.25 9.9583694,4.25 4.25,9.9583694 4.25,17 4.25,24.041631 9.9583694,29.75 17,29.75 V 34 C 7.6111592,34 0,26.388841 0,17 Z M 17,27.2 C 11.366696,27.2 6.8,22.633304 6.8,17 6.8,11.366696 11.366696,6.8 17,6.8 c 5.633304,0 10.2,4.566696 10.2,10.2 h -3.709091 c 0,-3.58483 -2.906079,-6.490909 -6.490909,-6.490909 -3.58483,0 -6.490909,2.906079 -6.490909,6.490909 0,3.58483 2.906079,6.490909 6.490909,6.490909 z"
           id="Path" /></g></g></g><g
     style="fill:#000000"
     id="Group-29"
     transform="translate(56.8,8.8)"><path
       inkscape:connector-curvature="0"
       d="m 6.59216,13.84256 c 2.4864,0 3.7296,-1.344 3.7296,-4.2008 0,-2.924 -1.2432,-4.0328 -3.6624,-4.0328 h -1.2104 v 8.2336 z m -6.3176,10.9888 v -23.524 h 6.3848 c 5.7464,0 8.8384,2.7224 8.8384,8.1664 0,6.0824 -3.6632,8.6032 -8.704,8.6032 h -1.3112 v 6.7544 z"
       id="Fill-1" /><path
       inkscape:connector-curvature="0"
       d="m 23.08984,11.18752 c -1.5128,0 -2.4528,1.6136 -2.4528,4.9064 0,3.3272 0.9736,4.9736 2.52,4.9736 1.512,0 2.4864,-1.6464 2.4864,-4.94 0,-3.3264 -1.008,-4.94 -2.5536,-4.94 m 0.0336,13.98 c -3.9656,0 -7.1248,-3.0584 -7.1248,-9.0064 0,-6.0152 3.1928,-9.1072 7.1584,-9.1072 3.932,0 7.124,3.092 7.124,9.04 0,5.9816 -3.192,9.0736 -7.1576,9.0736"
       id="Fill-3" /><path
       inkscape:connector-curvature="0"
       d="m 38.84768,25.1004 c -4.6712,0 -7.4272,-3.26 -7.4272,-8.9392 0,-5.5448 2.8232,-9.04 7.696,-9.04 1.5464,0 2.7216,0.3024 3.8648,0.7392 l -0.74,4.2344 c -0.8064,-0.3696 -1.7464,-0.672 -2.7216,-0.672 -2.252,0 -3.4272,1.9488 -3.4272,4.6712 0,2.9576 1.1752,4.7048 3.4944,4.7048 0.8744,0 1.7808,-0.2688 2.7552,-0.6384 l 0.74,4.0664 c -1.1768,0.504 -2.7216,0.8736 -4.2344,0.8736"
       id="Fill-5" /><polygon
       id="Fill-7"
       points="44.8264,0.60128 49.6992,0.60128 49.6992,14.95168 53.6648,7.42368 59.008,7.42368 54.2696,15.75808 59.1424,24.83168 53.732,24.83168 49.6992,16.49728 49.6992,24.83168 44.8264,24.83168 " /><path
       inkscape:connector-curvature="0"
       d="m 67.77656,14.9516 c -0.1008,-2.6216 -0.8744,-4.1672 -2.352,-4.1672 -1.5128,0 -2.2856,1.6128 -2.3872,4.1672 z m -9.276,1.2432 c 0,-5.9816 3.0592,-9.1408 6.924,-9.1408 4.0992,0 6.8552,3.1256 6.8552,9.2416 v 1.58 h -9.2424 c 0.1688,2.3856 1.4792,3.5616 3.6296,3.5616 1.2776,0 2.7896,-0.4032 4.1672,-1.0416 l 0.8744,3.428 c -1.6808,0.84 -3.6632,1.2768 -5.5456,1.2768 -4.268,0 -7.6624,-2.2512 -7.6624,-8.9056 z"
       id="Fill-9" /><path
       inkscape:connector-curvature="0"
       d="m 74.89768,19.62264 v -8.2 h -1.8824 v -3.9992 h 1.8824 v -4.5696 h 4.8392 v 4.5696 h 3.6968 v 3.9992 h -3.6968 v 7.4944 c 0,1.4448 0.7736,2.0496 2.0832,2.0496 0.572,0 1.076,-0.1008 1.6136,-0.2352 v 3.9656 c -0.7392,0.2352 -1.7816,0.3696 -2.9904,0.3696 -3.6968,0 -5.5456,-1.512 -5.5456,-5.444"
       id="Fill-11" /><path
       inkscape:connector-curvature="0"
       d="m 99.79608,25.1004 c -6.1168,0 -9.948,-3.8984 -9.948,-11.9976 0,-7.796 3.932,-12.064 9.9816,-12.064 2.0168,0 3.6968,0.4032 5.0072,0.9072 l -0.8064,4.772 c -1.0416,-0.4368 -2.2512,-0.84 -3.6968,-0.84 -3.2256,0 -5.1416,2.5544 -5.1416,7.1576 0,4.7384 1.8152,7.2256 5.2424,7.2256 1.3112,0 2.5544,-0.336 3.6296,-0.8064 l 0.84,4.6376 c -1.4448,0.6048 -3.2256,1.008 -5.108,1.008"
       id="Fill-13" /><path
       inkscape:connector-curvature="0"
       d="m 114.51248,21.1352 v -4.1336 c -0.4704,-0.1008 -1.008,-0.1344 -1.5792,-0.1344 -1.008,0 -1.5792,0.2016 -1.9824,0.5712 -0.3696,0.4032 -0.572,1.008 -0.572,1.8816 0,1.748 0.7736,2.4536 2.1168,2.4536 0.6728,0 1.3784,-0.2688 2.0168,-0.6384 m -4.0328,3.932 c -2.7216,0 -4.6376,-1.748 -4.6376,-5.512 0,-1.68 0.4712,-3.0912 1.3784,-3.9656 0.9744,-1.008 2.4192,-1.512 4.604,-1.512 0.9408,0 1.8816,0.1344 2.688,0.3024 v -0.9744 c 0,-1.4784 -0.672,-2.2856 -2.4864,-2.2856 -1.4112,0 -2.924,0.404 -4.268,0.9752 l -0.9072,-3.6968 c 1.7472,-0.7056 3.7976,-1.2432 6.0488,-1.2432 4.4024,0 6.3856,1.8816 6.3856,5.8808 v 8.704 l 0.3696,3.092 h -4.2344 l -0.6048,-1.5128 c -1.2776,1.1096 -2.5208,1.748 -4.336,1.748"
       id="Fill-15" /><path
       inkscape:connector-curvature="0"
       d="m 127.38048,25.134 c -2.352,0 -4.5368,-0.6048 -6.4184,-1.6128 l 0.9744,-3.932 c 1.8488,1.008 3.696,1.6128 5.3768,1.6128 1.244,0 1.916,-0.5376 1.916,-1.2768 0,-0.7392 -0.4032,-1.0752 -2.756,-2.016 -3.26,-1.3112 -4.8728,-2.5544 -4.8728,-5.4784 0,-3.2264 2.2184,-5.3096 6.116,-5.3096 1.9824,0 3.7976,0.4704 5.4448,1.2776 l -0.9752,3.9312 c -1.512,-0.7728 -3.0576,-1.2768 -4.4696,-1.2768 -1.0416,0 -1.6128,0.4368 -1.6128,1.1424 0,0.672 0.3696,1.008 2.6888,1.9496 3.6632,1.4448 4.9392,2.7888 4.9392,5.5448 0,3.6296 -2.5536,5.444 -6.3512,5.444"
       id="Fill-17" /><path
       inkscape:connector-curvature="0"
       d="m 136.51872,19.62264 v -8.2 h -1.8824 v -3.9992 h 1.8824 v -4.5696 h 4.8392 v 4.5696 h 3.6968 v 3.9992 h -3.6968 v 7.4944 c 0,1.4448 0.7736,2.0496 2.0832,2.0496 0.572,0 1.076,-0.1008 1.6136,-0.2352 v 3.9656 c -0.7392,0.2352 -1.7816,0.3696 -2.9904,0.3696 -3.6968,0 -5.5456,-1.512 -5.5456,-5.444"
       id="Fill-19" /><path
       inkscape:connector-curvature="0"
       d="m 152.9492,25.134 c -2.352,0 -4.5368,-0.6048 -6.4184,-1.6128 l 0.9744,-3.932 c 1.8488,1.008 3.696,1.6128 5.3768,1.6128 1.244,0 1.916,-0.5376 1.916,-1.2768 0,-0.7392 -0.4032,-1.0752 -2.756,-2.016 -3.26,-1.3112 -4.8728,-2.5544 -4.8728,-5.4784 0,-3.2264 2.2184,-5.3096 6.116,-5.3096 1.9824,0 3.7976,0.4704 5.4448,1.2776 l -0.9752,3.9312 c -1.512,-0.7728 -3.0576,-1.2768 -4.4696,-1.2768 -1.0416,0 -1.6128,0.4368 -1.6128,1.1424 0,0.672 0.3696,1.008 2.6888,1.9496 3.6632,1.4448 4.9392,2.7888 4.9392,5.5448 0,3.6296 -2.5536,5.444 -6.3512,5.444"
       id="Fill-21" /></g></g><g
   id="g1353"><path
     id="path1278"
     d="m 126.3309,47.351606 c 0,21.501395 -17.42951,38.930907 -38.930903,38.930907 -21.501396,0 -38.930907,-17.429512 -38.930907,-38.930907 0,-21.501396 17.429511,-38.9309071 38.930907,-38.9309071 21.501393,0 38.930903,17.4295111 38.930903,38.9309071"
     inkscape:connector-curvature="0"
     style="fill:#666666;fill-rule:evenodd;stroke:none;stroke-width:1.80235684" /><g
     transform="matrix(1.8023568,0,0,1.8023568,57.120403,17.072012)"
     id="g1282"
     style="fill:#ffffff;fill-rule:evenodd;stroke:none;stroke-width:1"><path
       id="path1280"
       d="M 0,17 C 0,7.6111592 7.6111592,0 17,0 26.388841,0 34,7.6111592 34,17 H 29.75 C 29.75,9.9583694 24.041631,4.25 17,4.25 9.9583694,4.25 4.25,9.9583694 4.25,17 4.25,24.041631 9.9583694,29.75 17,29.75 V 34 C 7.6111592,34 0,26.388841 0,17 Z M 17,27.2 C 11.366696,27.2 6.8,22.633304 6.8,17 6.8,11.366696 11.366696,6.8 17,6.8 c 5.633304,0 10.2,4.566696 10.2,10.2 h -3.709091 c 0,-3.58483 -2.906079,-6.490909 -6.490909,-6.490909 -3.58483,0 -6.490909,2.906079 -6.490909,6.490909 0,3.58483 2.906079,6.490909 6.490909,6.490909 z"
       inkscape:connector-curvature="0" /></g><g
     transform="matrix(1.8023568,0,0,1.8023568,150.84296,24.281439)"
     id="g1310"
     style="fill:#666666;fill-rule:evenodd;stroke:none;stroke-width:1"><path
       style="fill:#666666"
       id="path1288"
       d="m 6.59216,13.84256 c 2.4864,0 3.7296,-1.344 3.7296,-4.2008 0,-2.924 -1.2432,-4.0328 -3.6624,-4.0328 h -1.2104 v 8.2336 z m -6.3176,10.9888 v -23.524 h 6.3848 c 5.7464,0 8.8384,2.7224 8.8384,8.1664 0,6.0824 -3.6632,8.6032 -8.704,8.6032 h -1.3112 v 6.7544 z"
       inkscape:connector-curvature="0" /><path
       style="fill:#666666"
       id="path1290"
       d="m 23.08984,11.18752 c -1.5128,0 -2.4528,1.6136 -2.4528,4.9064 0,3.3272 0.9736,4.9736 2.52,4.9736 1.512,0 2.4864,-1.6464 2.4864,-4.94 0,-3.3264 -1.008,-4.94 -2.5536,-4.94 m 0.0336,13.98 c -3.9656,0 -7.1248,-3.0584 -7.1248,-9.0064 0,-6.0152 3.1928,-9.1072 7.1584,-9.1072 3.932,0 7.124,3.092 7.124,9.04 0,5.9816 -3.192,9.0736 -7.1576,9.0736"
       inkscape:connector-curvature="0" /><path
       style="fill:#666666"
       id="path1292"
       d="m 38.84768,25.1004 c -4.6712,0 -7.4272,-3.26 -7.4272,-8.9392 0,-5.5448 2.8232,-9.04 7.696,-9.04 1.5464,0 2.7216,0.3024 3.8648,0.7392 l -0.74,4.2344 c -0.8064,-0.3696 -1.7464,-0.672 -2.7216,-0.672 -2.252,0 -3.4272,1.9488 -3.4272,4.6712 0,2.9576 1.1752,4.7048 3.4944,4.7048 0.8744,0 1.7808,-0.2688 2.7552,-0.6384 l 0.74,4.0664 c -1.1768,0.504 -2.7216,0.8736 -4.2344,0.8736"
       inkscape:connector-curvature="0" /><polygon
       style="fill:#666666"
       points="49.6992,14.95168 53.6648,7.42368 59.008,7.42368 54.2696,15.75808 59.1424,24.83168 53.732,24.83168 49.6992,16.49728 49.6992,24.83168 44.8264,24.83168 44.8264,0.60128 49.6992,0.60128 "
       id="polygon1294" /><path
       style="fill:#666666"
       id="path1296"
       d="m 67.77656,14.9516 c -0.1008,-2.6216 -0.8744,-4.1672 -2.352,-4.1672 -1.5128,0 -2.2856,1.6128 -2.3872,4.1672 z m -9.276,1.2432 c 0,-5.9816 3.0592,-9.1408 6.924,-9.1408 4.0992,0 6.8552,3.1256 6.8552,9.2416 v 1.58 h -9.2424 c 0.1688,2.3856 1.4792,3.5616 3.6296,3.5616 1.2776,0 2.7896,-0.4032 4.1672,-1.0416 l 0.8744,3.428 c -1.6808,0.84 -3.6632,1.2768 -5.5456,1.2768 -4.268,0 -7.6624,-2.2512 -7.6624,-8.9056 z"
       inkscape:connector-curvature="0" /><path
       style="fill:#666666"
       id="path1298"
       d="m 74.89768,19.62264 v -8.2 h -1.8824 v -3.9992 h 1.8824 v -4.5696 h 4.8392 v 4.5696 h 3.6968 v 3.9992 h -3.6968 v 7.4944 c 0,1.4448 0.7736,2.0496 2.0832,2.0496 0.572,0 1.076,-0.1008 1.6136,-0.2352 v 3.9656 c -0.7392,0.2352 -1.7816,0.3696 -2.9904,0.3696 -3.6968,0 -5.5456,-1.512 -5.5456,-5.444"
       inkscape:connector-curvature="0" /><path
       style="fill:#666666"
       id="path1300"
       d="m 99.79608,25.1004 c -6.1168,0 -9.948,-3.8984 -9.948,-11.9976 0,-7.796 3.932,-12.064 9.9816,-12.064 2.0168,0 3.6968,0.4032 5.0072,0.9072 l -0.8064,4.772 c -1.0416,-0.4368 -2.2512,-0.84 -3.6968,-0.84 -3.2256,0 -5.1416,2.5544 -5.1416,7.1576 0,4.7384 1.8152,7.2256 5.2424,7.2256 1.3112,0 2.5544,-0.336 3.6296,-0.8064 l 0.84,4.6376 c -1.4448,0.6048 -3.2256,1.008 -5.108,1.008"
       inkscape:connector-curvature="0" /><path
       style="fill:#666666"
       id="path1302"
       d="m 114.51248,21.1352 v -4.1336 c -0.4704,-0.1008 -1.008,-0.1344 -1.5792,-0.1344 -1.008,0 -1.5792,0.2016 -1.9824,0.5712 -0.3696,0.4032 -0.572,1.008 -0.572,1.8816 0,1.748 0.7736,2.4536 2.1168,2.4536 0.6728,0 1.3784,-0.2688 2.0168,-0.6384 m -4.0328,3.932 c -2.7216,0 -4.6376,-1.748 -4.6376,-5.512 0,-1.68 0.4712,-3.0912 1.3784,-3.9656 0.9744,-1.008 2.4192,-1.512 4.604,-1.512 0.9408,0 1.8816,0.1344 2.688,0.3024 v -0.9744 c 0,-1.4784 -0.672,-2.2856 -2.4864,-2.2856 -1.4112,0 -2.924,0.404 -4.268,0.9752 l -0.9072,-3.6968 c 1.7472,-0.7056 3.7976,-1.2432 6.0488,-1.2432 4.4024,0 6.3856,1.8816 6.3856,5.8808 v 8.704 l 0.3696,3.092 h -4.2344 l -0.6048,-1.5128 c -1.2776,1.1096 -2.5208,1.748 -4.336,1.748"
       inkscape:connector-curvature="0" /><path
       style="fill:#666666"
       id="path1304"
       d="m 127.38048,25.134 c -2.352,0 -4.5368,-0.6048 -6.4184,-1.6128 l 0.9744,-3.932 c 1.8488,1.008 3.696,1.6128 5.3768,1.6128 1.244,0 1.916,-0.5376 1.916,-1.2768 0,-0.7392 -0.4032,-1.0752 -2.756,-2.016 -3.26,-1.3112 -4.8728,-2.5544 -4.8728,-5.4784 0,-3.2264 2.2184,-5.3096 6.116,-5.3096 1.9824,0 3.7976,0.4704 5.4448,1.2776 l -0.9752,3.9312 c -1.512,-0.7728 -3.0576,-1.2768 -4.4696,-1.2768 -1.0416,0 -1.6128,0.4368 -1.6128,1.1424 0,0.672 0.3696,1.008 2.6888,1.9496 3.6632,1.4448 4.9392,2.7888 4.9392,5.5448 0,3.6296 -2.5536,5.444 -6.3512,5.444"
       inkscape:connector-curvature="0" /><path
       style="fill:#666666"
       id="path1306"
       d="m 136.51872,19.62264 v -8.2 h -1.8824 v -3.9992 h 1.8824 v -4.5696 h 4.8392 v 4.5696 h 3.6968 v 3.9992 h -3.6968 v 7.4944 c 0,1.4448 0.7736,2.0496 2.0832,2.0496 0.572,0 1.076,-0.1008 1.6136,-0.2352 v 3.9656 c -0.7392,0.2352 -1.7816,0.3696 -2.9904,0.3696 -3.6968,0 -5.5456,-1.512 -5.5456,-5.444"
       inkscape:connector-curvature="0" /><path
       style="fill:#666666"
       id="path1308"
       d="m 152.9492,25.134 c -2.352,0 -4.5368,-0.6048 -6.4184,-1.6128 l 0.9744,-3.932 c 1.8488,1.008 3.696,1.6128 5.3768,1.6128 1.244,0 1.916,-0.5376 1.916,-1.2768 0,-0.7392 -0.4032,-1.0752 -2.756,-2.016 -3.26,-1.3112 -4.8728,-2.5544 -4.8728,-5.4784 0,-3.2264 2.2184,-5.3096 6.116,-5.3096 1.9824,0 3.7976,0.4704 5.4448,1.2776 l -0.9752,3.9312 c -1.512,-0.7728 -3.0576,-1.2768 -4.4696,-1.2768 -1.0416,0 -1.6128,0.4368 -1.6128,1.1424 0,0.672 0.3696,1.008 2.6888,1.9496 3.6632,1.4448 4.9392,2.7888 4.9392,5.5448 0,3.6296 -2.5536,5.444 -6.3512,5.444"
       inkscape:connector-curvature="0" /></g></g></svg>